<svg width="89" height="89" viewBox="0 0 89 89" fill="none" xmlns="http://www.w3.org/2000/svg">
<path d="M28.925 7.41675H60.075C71.9416 7.41675 81.5833 17.0584 81.5833 28.9251V60.0751C81.5833 65.7794 79.3172 71.2502 75.2836 75.2838C71.2501 79.3174 65.7793 81.5834 60.075 81.5834H28.925C17.0583 81.5834 7.41663 71.9417 7.41663 60.0751V28.9251C7.41663 23.2207 9.68268 17.75 13.7163 13.7164C17.7499 9.6828 23.2206 7.41675 28.925 7.41675ZM28.1833 14.8334C24.6427 14.8334 21.247 16.2399 18.7434 18.7435C16.2398 21.2471 14.8333 24.6428 14.8333 28.1834V60.8167C14.8333 68.1963 20.8037 74.1667 28.1833 74.1667H60.8166C64.3573 74.1667 67.7529 72.7602 70.2565 70.2566C72.7601 67.753 74.1666 64.3574 74.1666 60.8167V28.1834C74.1666 20.8038 68.1962 14.8334 60.8166 14.8334H28.1833ZM63.9687 20.3959C65.1981 20.3959 66.3771 20.8843 67.2464 21.7536C68.1158 22.6229 68.6041 23.8019 68.6041 25.0313C68.6041 26.2607 68.1158 27.4398 67.2464 28.3091C66.3771 29.1784 65.1981 29.6667 63.9687 29.6667C62.7393 29.6667 61.5603 29.1784 60.691 28.3091C59.8217 27.4398 59.3333 26.2607 59.3333 25.0313C59.3333 23.8019 59.8217 22.6229 60.691 21.7536C61.5603 20.8843 62.7393 20.3959 63.9687 20.3959ZM44.5 25.9584C49.4175 25.9584 54.1337 27.9119 57.6109 31.3891C61.0881 34.8664 63.0416 39.5825 63.0416 44.5001C63.0416 49.4176 61.0881 54.1338 57.6109 57.611C54.1337 61.0883 49.4175 63.0417 44.5 63.0417C39.5824 63.0417 34.8663 61.0883 31.389 57.611C27.9118 54.1338 25.9583 49.4176 25.9583 44.5001C25.9583 39.5825 27.9118 34.8664 31.389 31.3891C34.8663 27.9119 39.5824 25.9584 44.5 25.9584ZM44.5 33.3751C41.5494 33.3751 38.7197 34.5472 36.6334 36.6335C34.5471 38.7199 33.375 41.5495 33.375 44.5001C33.375 47.4506 34.5471 50.2803 36.6334 52.3666C38.7197 54.453 41.5494 55.6251 44.5 55.6251C47.4505 55.6251 50.2802 54.453 52.3665 52.3666C54.4529 50.2803 55.625 47.4506 55.625 44.5001C55.625 41.5495 54.4529 38.7199 52.3665 36.6335C50.2802 34.5472 47.4505 33.3751 44.5 33.3751Z" fill="#C7A2C1"/>
</svg>
