<svg width="107" height="89" viewBox="0 0 107 89" fill="none" xmlns="http://www.w3.org/2000/svg">
<path d="M17.9 80C15.4525 80 13.358 79.144 11.6166 77.4319C9.87517 75.7198 9.00297 73.6592 9 71.25V18.75C9 16.3437 9.8722 14.2846 11.6166 12.5725C13.361 10.8604 15.4555 10.0029 17.9 10H89.1C91.5475 10 93.6434 10.8575 95.3878 12.5725C97.1322 14.2875 98.003 16.3467 98 18.75V71.25C98 73.6562 97.1293 75.7169 95.3878 77.4319C93.6464 79.1469 91.5505 80.0029 89.1 80H17.9ZM53.5 49.375L17.9 27.5V71.25H89.1V27.5L53.5 49.375ZM53.5 40.625L89.1 18.75H17.9L53.5 40.625ZM17.9 27.5V18.75V71.25V27.5Z" fill="#C7A2C1"/>
</svg>
