<svg width="90" height="90" viewBox="0 0 90 90" fill="none" xmlns="http://www.w3.org/2000/svg">
<path d="M70.7377 18.3035C67.3196 14.8878 63.2558 12.1865 58.7831 10.3571C54.3105 8.52773 49.5185 7.60681 44.6864 7.64802C24.4391 7.75364 8.02337 24.3416 8.12898 44.5888C8.16284 51.0783 9.90153 57.3735 13.1197 62.9193L8.0275 82.0069L27.4693 76.7879C32.8616 79.6894 38.9142 81.2154 45.07 81.1833C65.3172 81.0776 81.733 64.4897 81.6274 44.2425C81.5761 34.4155 77.7084 25.2018 70.7377 18.3035ZM45.0375 74.9533C39.5492 74.982 34.1645 73.5267 29.4404 70.7701L28.3245 70.1084L16.7705 73.2095L19.7895 61.9203L19.0419 60.7746C15.9666 55.9217 14.3181 50.3018 14.2847 44.5567C14.1969 27.7211 27.846 13.9289 44.6816 13.841C52.8398 13.7985 60.5326 16.9476 66.3106 22.7025C69.1719 25.5203 71.4453 28.8782 72.9988 32.5813C74.5523 36.2845 75.355 40.2593 75.3604 44.2752C75.5223 61.1104 61.8731 74.8655 45.0375 74.9533ZM61.6797 52.0229C60.7504 51.5827 56.2146 49.3814 55.3971 49.0519C54.5426 48.7597 53.9485 48.6144 53.3228 49.5077C52.6972 50.4381 50.9651 52.5238 50.4491 53.1198C49.9332 53.7529 49.3773 53.83 48.4478 53.3528C47.5184 52.9126 44.5465 51.9269 41.0445 48.8301C38.2876 46.3969 36.4549 43.4027 35.8938 42.4785C35.3698 41.5542 35.8123 41.0698 36.2918 40.5852C36.6976 40.1751 37.2133 39.5049 37.6556 38.9835C38.0979 38.462 38.2811 38.0531 38.5747 37.4582C38.8681 36.8263 38.717 36.3079 38.4922 35.864C38.2674 35.4202 36.3897 30.9058 35.6383 29.0555C34.8874 27.2794 34.1098 27.506 33.5534 27.4718L31.7734 27.4811C31.143 27.4844 30.18 27.7119 29.3319 28.6434C28.5209 29.5747 26.1593 31.8121 26.1829 36.3362C26.2064 40.8603 29.5296 45.2188 29.9777 45.8098C30.426 46.4379 36.5189 55.6771 45.7361 59.597C47.929 60.5497 49.6377 61.0971 50.9749 61.498C53.1664 62.1912 55.1683 62.0695 56.7617 61.8387C58.5403 61.5698 62.2013 59.5853 62.9317 57.4306C63.6992 55.2757 63.6898 53.4587 63.4281 53.0521C63.1664 52.6456 62.6091 52.4631 61.6797 52.0229Z" fill="#C7A2C1"/>
</svg>
